<svg xmlns="http://www.w3.org/2000/svg" viewBox="0 0 48 48" display="none">
    <symbol id="rect">
        <rect width="48" height="48" fill="#FFFFFF" />
        <rect width="48" height="48" rx="8" />
    </symbol>
    
    <symbol id="circle">
        <rect width="48" height="48" fill="#FFFFFF" />
        <rect width="48" height="48" rx="24" />
    </symbol>
    
    <symbol id="hex">
        <rect width="48" height="48" fill="#FFFFFF" />
        <path d="M24 0L40.9706 7.02944L48 24L40.9706 40.9706L24 48L7.02944 40.9706L0 24L7.02944 7.02944L24 0Z" />
    </symbol>
    
    <symbol id="star">
        <rect width="48" height="48" fill="#FFFFFF" />
        <path d="M18.9643 48V32.7399L5.53571 40.3699L0.5 31.6301L13.7887 24L0.5 16.3699L5.53571 7.63006L18.9643 15.2601V0H29.1756V15.2601L42.4643 7.63006L47.5 16.3699L34.2113 24L47.5 31.6301L42.4643 40.3699L29.1756 32.7399V48H18.9643Z" />
    </symbol>

    <symbol id="grid">
        <rect width="48" height="48" fill="#FFFFFF" />
        <path d="M11 34C12.6569 34 14 35.3431 14 37V45C14 46.6569 12.6569 48 11 48H3C1.34315 48 1.61067e-08 46.6569 0 45V37C1.28853e-07 35.3431 1.34315 34 3 34H11Z" />
        <path d="M45 34C46.6569 34 48 35.3431 48 37V45C48 46.6569 46.6569 48 45 48H37C35.3431 48 34 46.6569 34 45V37C34 35.3431 35.3431 34 37 34H45Z" />
        <path d="M29 15C31.2091 15 33 16.7909 33 19V29C33 31.2091 31.2091 33 29 33H19C16.7909 33 15 31.2091 15 29V19C15 16.7909 16.7909 15 19 15H29Z" />
        <path d="M11 0C12.6569 1.28851e-07 14 1.34315 14 3V11C14 12.6569 12.6569 14 11 14H3C1.34315 14 1.61067e-08 12.6569 0 11V3C1.28853e-07 1.34315 1.34315 1.61064e-08 3 0H11Z" />
        <path d="M45 0C46.6569 1.28851e-07 48 1.34315 48 3V11C48 12.6569 46.6569 14 45 14H37C35.3431 14 34 12.6569 34 11V3C34 1.34315 35.3431 1.61064e-08 37 0H45Z" />
    </symbol>
</svg>