<svg xmlns="http://www.w3.org/2000/svg" viewBox="0 0 48 48" display="none">
    <symbol id="rect">
        <rect width="48" height="48" fill="transparent" />
        <rect width="48" height="48" rx="8" />
    </symbol>
    
    <symbol id="arcs">
        <path d="M24 48H8C3.58172 48 1.22969e-06 44.4183 2.74658e-06 40L8.23974e-06 24C13.2548 24 24 34.7452 24 48Z" />
        <path d="M24 48H40C44.4183 48 48 44.4183 48 40L48 24C34.7452 24 24 34.7452 24 48Z" />
        <path d="M24 9.53674e-07H8C3.58172 9.53674e-07 1.22969e-06 3.58173 2.74658e-06 8L8.23974e-06 24C13.2548 24 24 13.2548 24 9.53674e-07Z" />
        <path d="M24 9.53674e-07H40C44.4183 9.53674e-07 48 3.58173 48 8L48 24C34.7452 24 24 13.2548 24 9.53674e-07Z" />
    </symbol>

    <symbol id="hex">
        <rect width="48" height="48" fill="transparent" />
        <path d="M23.7846 0L44.5692 12V36L23.7846 48L3 36V12L23.7846 0Z" />
    </symbol>

    <symbol id="ko">
        <path d="M0 24C13.2548 24 24 34.7452 24 48H12C5.37258 48 0 42.6274 0 36V24Z" />
        <path d="M48 48C34.7452 48 24 37.2548 24 24C24 10.7452 34.7452 0 48 0V48Z" />
        <path d="M24 0C24 13.2548 13.2548 24 0 24V12C0 5.37258 5.37258 0 12 0H24Z" />
    </symbol>

    <symbol id="mod">
        <path d="M2.09815e-06 24L48 24C48 37.2548 37.2548 48 24 48C10.7452 48 9.39372e-07 37.2548 2.09815e-06 24Z" />
        <path d="M2.09815e-06 -4.19629e-06L48 0C48 13.2548 37.2548 24 24 24C10.7452 24 9.39372e-07 13.2548 2.09815e-06 -4.19629e-06Z" />
    </symbol>

    <symbol id="octo">
        <rect width="48" height="48" fill="transparent" />
        <path d="M24 0L40.9706 7.02944L48 24L40.9706 40.9706L24 48L7.02944 40.9706L0 24L7.02944 7.02944L24 0Z" />
    </symbol>

    <symbol id="star">
        <rect width="48" height="48" fill="transparent" />
        <path d="M18.9643 48V32.7399L5.53571 40.3699L0.5 31.6301L13.7887 24L0.5 16.3699L5.53571 7.63006L18.9643 15.2601V0H29.1756V15.2601L42.4643 7.63006L47.5 16.3699L34.2113 24L47.5 31.6301L42.4643 40.3699L29.1756 32.7399V48H18.9643Z" />
    </symbol>

    <symbol id="fox">
        <rect width="48" height="48" fill="transparent" />
        <path d="M27.8025 7.66865C34.9749 -3.58706 47.9999 7.38043 48 20.7651C48 34.1497 37.2548 45 24 45C10.7452 45 0 34.1497 0 20.7651C5.19125e-05 7.38043 13.0251 -3.58706 20.1975 7.66865C21.6922 10.0143 22.7971 12.6372 23.4198 15.444C23.4808 15.7192 23.7207 15.9181 24 15.9181C24.2793 15.9181 24.5191 15.7192 24.5802 15.444C25.2029 12.6372 26.3078 10.0143 27.8025 7.66865Z" fill="#FF8888"/>
    </symbol>
</svg>