<svg width="40" height="40" viewBox="0 0 40 40" fill="none" xmlns="http://www.w3.org/2000/svg">
<rect width="40" height="40" rx="8" fill="#F8F8F8"/>
<rect x="2.575" y="2.575" width="34.85" height="34.85" rx="5.425" stroke="#000044" stroke-width="1.15"/>
<path d="M17.2055 18L14.2515 13.212L12.8515 14.864V18H11.6755V8.228H12.8515V13.324H12.8935L14.1815 11.7L17.0655 8.228H18.4795L15.0495 12.344L18.5775 18H17.2055ZM25.32 18.126C24.564 18.126 24.284 17.762 24.284 17.286V17.034C24.284 16.558 24.564 16.194 25.32 16.194C26.076 16.194 26.356 16.558 26.356 17.034V17.286C26.356 17.762 26.076 18.126 25.32 18.126ZM25.32 12.582C24.564 12.582 24.284 12.218 24.284 11.742V11.49C24.284 11.014 24.564 10.65 25.32 10.65C26.076 10.65 26.356 11.014 26.356 11.49V11.742C26.356 12.218 26.076 12.582 25.32 12.582ZM17.7095 32H11.6615V31.062H14.0975V23.166H11.6615V22.228H17.7095V23.166H15.2735V31.062H17.7095V32ZM25.32 32.168C22.94 32.168 21.904 30.306 21.904 27.114C21.904 23.922 22.94 22.06 25.32 22.06C27.7 22.06 28.736 23.922 28.736 27.114C28.736 30.306 27.7 32.168 25.32 32.168ZM25.32 31.146C26.874 31.146 27.49 29.872 27.49 27.912V26.316C27.49 24.356 26.874 23.082 25.32 23.082C23.766 23.082 23.15 24.356 23.15 26.316V27.912C23.15 29.872 23.766 31.146 25.32 31.146Z" fill="#000044"/>
</svg>
